:SAMPLES-PER-SECOND 30
:FULLY-SPECIFIED
:DEGREES
118
root  -0.002458377734 39.2219994 6.734377944 5.492980957 -74.36000061 -2.060974121
lowerback  17.82769966 7.297629833 4.169449806
upperback  6.684539795 10.05580044 3.7667799
thorax  -2.666229963 4.833859921 -0.2972300053
lowerneck  5.368619919 -0.8511599898 -6.873380184
upperneck  8.277009964 -1.211140037 -7.038430214
head  1.691529989 -0.9784510136 -1.065369964
lclavicle  0 -9.442270133e-015 7.951389973e-016
lhumerus  -8.979539871 -12.90250015 88.13220215
lradius  1.672979305e-031 -3.109659834e-031 118.2799988
lwrist  -7.062250077e-031 3.531125038e-031 68.19950104
lhand  -1.496451383e-031 -27.76390076 20.11240005
lfingers  90 7.125020027 -90
lthumb  89.89689403 5.08795885 91.16245106
rclavicle  0 -9.442270133e-015 7.951389973e-016
rhumerus  22.32889938 7.009769917 -75.02700043
rradius  1.430391604e-031 3.228439855e-031 66.10379791
rwrist  0 3.531125038e-031 -65.7766037
rhand  -7.920061211e-032 -33.2840004 9.303460121
rfingers  -90 -7.125020027 -90
rthumb  -92.93752616 -24.25625642 -97.11982154
rfemur  4.076270103 12.35709953 0.01438499987
rtibia  -0 0 34.08779907
rfoot  -0 -20.28120041 -7.781750202
rtoes  5.373923086 19.29304026 -105.8922705
lfemur  -40.86389923 -10.63140011 -2.293610096
ltibia  -0 0 33.32540131
lfoot  4.441313153e-032 6.368470192 -3.747590065
ltoes  -4.250644065 -19.5611806 -102.515957
119
root  0.1866024428 39.30288901 6.604066984 0.8870239258 -72.39199829 2.971984863
lowerback  18.14760017 7.28387022 5.09980011
upperback  6.372310162 10.23340034 3.260809898
thorax  -2.899130106 4.934939861 -1.403069973
lowerneck  5.833529949 -1.527629972 -6.281360149
upperneck  8.553230286 -2.086090088 -7.573289871
head  1.68798995 -1.406479955 -1.330430031
lclavicle  0 -9.442270133e-015 7.951389973e-016
lhumerus  -8.262339592 -13.56799984 86.35980225
lradius  1.674878775e-031 -3.108637182e-031 118.3150024
lwrist  -3.531125038e-031 3.531125038e-031 68.7385025
lhand  -1.496451383e-031 -27.76390076 20.11240005
lfingers  90 7.125020027 -90
lthumb  89.89689403 5.08795885 91.16245106
rclavicle  0 -9.442270133e-015 7.951389973e-016
rhumerus  26.40500069 5.452280045 -75.34680176
rradius  1.413394579e-031 3.23591715e-031 66.40509796
rwrist  7.062250077e-031 3.531125038e-031 -64.97979736
rhand  -7.920061211e-032 -33.2840004 9.303460121
rfingers  -90 -7.125020027 -90
rthumb  -92.93752616 -24.25625642 -97.11982154
rfemur  4.183400154 11.57450008 -0.821919024
rtibia  -0 0 35.74980164
rfoot  -0 -20.29570007 -7.743470192
rtoes  5.373923086 19.29304026 -105.8922705
lfemur  -41.12979889 -12.01729965 -3.88090992
ltibia  -0 0 32.78710175
lfoot  6.648764347e-032 5.251210213 -1.958379984
ltoes  -4.250644065 -19.5611806 -102.515957
120
root  0.4025555502 39.33822151 6.441733593 -1.861022949 -70.21800232 6.094970703
lowerback  18.51790047 7.289730072 5.903460026
upperback  6.00150013 10.44050026 3.000829935
thorax  -3.280770063 5.033880234 -2.209079981
lowerneck  6.321730137 -2.169169903 -5.797359943
upperneck  8.840370178 -2.924390078 -7.891250134
head  1.679149985 -1.814149976 -1.506960034
lclavicle  0 -9.442270133e-015 7.951389973e-016
lhumerus  -7.487669945 -14.1821003 85.04370117
lradius  1.6680928e-031 -3.112283799e-031 118.1900024
lwrist  -7.062250077e-031 1.059337512e-030 69.2365036
lhand  -1.496451383e-031 -27.76390076 20.11240005
lfingers  90 7.125020027 -90
lthumb  89.89689403 5.08795885 91.16245106
rclavicle  0 -9.442270133e-015 7.951389973e-016
rhumerus  30.03190041 3.862309933 -75.66449738
rradius  1.402859652e-031 3.240498239e-031 66.59149933
rwrist  7.062250077e-031 7.062250077e-031 -64.89730072
rhand  -7.920061211e-032 -33.2840004 9.303460121
rfingers  -90 -7.125020027 -90
rthumb  -92.93752616 -24.25625642 -97.11982154
rfemur  4.352330208 11.07390022 -1.097390056
rtibia  -0 0 37.44169998
rfoot  -0 -19.66769981 -7.810080051
rtoes  5.373923086 19.29304026 -105.8922705
lfemur  -41.57619858 -12.70160007 -5.401770115
ltibia  -0 0 33.20299911
lfoot  4.702517297e-032 4.218780041 -0.1550270021
ltoes  -4.250644065 -19.5611806 -102.515957
121
root  0.6112621994 39.36177652 6.298533387 -3.452026367 -67.86000061 8.000976562
lowerback  18.46290016 7.184629917 6.262869835
upperback  5.75 10.41359997 3.301830053
thorax  -3.517640114 5.012020111 -2.098370075
lowerneck  6.845230103 -2.547319889 -6.120769978
upperneck  9.093110085 -3.469369888 -8.056920052
head  1.670289993 -2.09878993 -1.499920011
lclavicle  0 -9.442270133e-015 7.951389973e-016
lhumerus  -7.005449772 -14.09599972 84.58989716
lradius  1.661026699e-031 -3.116060709e-031 118.0599976
lwrist  -3.531125038e-031 3.531125038e-031 69.4056015
lhand  -1.496451383e-031 -27.76390076 20.11240005
lfingers  90 7.125020027 -90
lthumb  89.89689403 5.08795885 91.16245106
rclavicle  0 -9.442270133e-015 7.951389973e-016
rhumerus  33.30929947 3.064470053 -75.44889832
rradius  1.403334716e-031 3.240292535e-031 66.58309937
rwrist  3.531125038e-031 7.062250077e-031 -66.12349701
rhand  -7.920061211e-032 -33.2840004 9.303460121
rfingers  -90 -7.125020027 -90
rthumb  -92.93752616 -24.25625642 -97.11982154
rfemur  4.524620056 10.61610031 -1.058339953
rtibia  -0 0 39.22249985
rfoot  -0 -18.34770012 -7.970300198
rtoes  5.373923086 19.29304026 -105.8922705
lfemur  -42.23460007 -12.89939976 -6.906320095
ltibia  -0 0 34.51319885
lfoot  4.422185835e-032 3.506629944 1.387500048
ltoes  -4.250644065 -19.5611806 -102.515957
